<?xml version="1.0" encoding="UTF-8"?><svg id="Calque_1" xmlns="http://www.w3.org/2000/svg" viewBox="0 0 600 149.85"><g id="BCG_x5F_RGB_x5F_V_x5F_W"><path d="M486.1,35.14c9.68,0,18.78-8.88,18.78-18.95C504.88,7.3,498.16,0,489.07,0,479.19,0,469.7,8.49,469.7,19.15c0,8.88,6.72,15.99,16.4,15.99" style="fill:#fff;"/><path d="M240.52,123c0,15.6,11.07,26.85,27.87,26.85,9.09,0,18.97-3.36,25.89-8.88l-3.56-23.3c-2.17,1.97-6.92,4.34-11.46,4.34-3.56,0-5.53-1.78-5.53-6.12,0-2.37.59-4.74,8.7-43.83h21.15l5.53-26.65h-21.15l8.35-39.49-35.36,15.8-5.01,23.69h-13.44l-5.73,26.65h13.64c-8.89,41.46-9.88,45.8-9.88,50.94" style="fill:#fff;"/><path d="M119.25,112.16c1.19,6.8,3.9,13.08,7.83,18.48,8.48,11.64,22.62,19.21,39.5,19.21s32.29-6.62,44.58-17.27l-20.04-20.63c-6.16,6.01-14.31,10.06-22.56,10.06-4.86,0-9.16-1.63-12.43-4.35l44.09-19.7,32.3-14.43c-.75-6.92-3.07-13.37-6.67-19-8.23-12.89-23.11-21.48-41.09-21.48-33.2,0-66.21,27.44-66.21,61.2,0,2.7.25,5.35.7,7.92M182.98,70.88c5.98,0,11.05,2.46,14.41,6.37l-47.28,21.13c2.89-14.36,17.48-27.49,32.87-27.49" style="fill:#fff;"/><polygon points="475.6 147.48 496.95 45.41 465.05 45.41 443.71 147.48 475.6 147.48" style="fill:#fff;"/><path d="M542.29,149.85c17.19,0,32.21-6.12,44.86-17.77l-19.57-20.14c-5.73,5.53-14.82,10.07-22.93,10.07-10.48,0-18.38-8.09-18.38-18.56,0-15.99,15.81-32.58,32.81-32.58,5.93,0,13.24,2.76,16.4,7.7l24.51-16.39c-7.91-10.86-20.95-19.15-38.93-19.15-33.4,0-66.41,27.64-66.41,61.2,0,25.27,20.36,45.61,47.63,45.61" style="fill:#fff;"/><path d="M350.12,149.85c17.19,0,32.22-6.12,44.86-17.77l-19.57-20.14c-5.73,5.53-14.82,10.07-22.93,10.07-10.48,0-18.38-8.09-18.38-18.56,0-15.99,15.81-32.58,32.81-32.58,5.93,0,13.24,2.76,16.4,7.7l24.51-16.39c-7.91-10.86-20.95-19.15-38.93-19.15-33.4,0-66.41,27.64-66.41,61.2,0,25.27,20.36,45.61,47.63,45.61" style="fill:#fff;"/><polygon points="430.49 147.48 458.66 11.85 426.91 11.85 398.74 147.48 430.49 147.48" style="fill:#fff;"/><path d="M112.93,105.82c0-12.44-7.31-23.3-18.38-28.63,15.41-6.91,25.69-20.34,25.69-35.73,0-17.18-14.82-29.61-36.76-29.61H28.26L0,147.48h60.16c27.87,0,52.77-15.99,52.77-41.66M55.93,40.47h15.5c8.7,0,13.04,2.76,13.24,8.09,0,9.67-8.89,16.98-20.55,16.98h-13.32l5.14-25.07ZM39.53,118.85l5.73-27.24h20.44c9.49,0,14.23,3.16,14.23,9.08,0,10.46-9.49,18.16-21.94,18.16h-18.46Z" style="fill:#fff;"/></g></svg>