<?xml version="1.0" encoding="UTF-8"?><svg id="Calque_1" xmlns="http://www.w3.org/2000/svg" viewBox="0 0 701.9 237.28"><rect y=".12" width="701.9" height="237.04"/><path d="M79.21,51.07h55.22c21.94,0,36.76,12.39,36.76,29.51,0,15.34-10.28,28.72-25.69,35.61,11.07,5.31,18.38,16.13,18.38,28.52,0,25.57-24.9,41.51-52.77,41.51h-60.16l28.26-135.14ZM108.94,157.69c12.45,0,21.94-7.67,21.94-18.1,0-5.9-4.74-9.05-14.23-9.05h-20.44l-5.73,27.15h18.46ZM115.06,104.58c11.66,0,20.55-7.28,20.55-16.92-.2-5.31-4.55-8.07-13.24-8.07h-15.5l-5.14,24.98h13.32Z" style="fill:#fff;"/><path d="M353.43,143.13c0-33.44,33.01-60.98,66.41-60.98,17.98,0,31.03,8.26,38.93,19.08l-24.51,16.33c-3.16-4.92-10.48-7.67-16.4-7.67-17,0-32.81,16.52-32.81,32.46,0,10.43,7.9,18.49,18.38,18.49,8.1,0,17.19-4.53,22.93-10.03l19.57,20.06c-12.65,11.61-27.67,17.7-44.86,17.7-27.27,0-47.63-20.26-47.63-45.44Z" style="fill:#fff;"/><path d="M545.61,143.13c0-33.44,33.01-60.98,66.41-60.98,17.98,0,31.03,8.26,38.93,19.08l-24.51,16.33c-3.16-4.92-10.48-7.67-16.4-7.67-17,0-32.81,16.52-32.81,32.46,0,10.43,7.9,18.49,18.38,18.49,8.1,0,17.19-4.53,22.93-10.03l19.57,20.06c-12.65,11.61-27.67,17.7-44.86,17.7-27.27,0-47.63-20.26-47.63-45.44Z" style="fill:#fff;"/><path d="M219.5,160.84c-4.86,0-9.16-1.62-12.43-4.33l44.09-19.63,32.3-14.38c-.75-6.89-3.07-13.32-6.66-18.93-8.23-12.85-23.11-21.41-41.09-21.41-33.2,0-66.21,27.34-66.21,60.98,0,2.69.25,5.33.7,7.89,1.19,6.78,3.9,13.03,7.83,18.41,8.48,11.59,22.62,19.14,39.5,19.14s32.29-6.59,44.58-17.21l-20.04-20.55c-6.16,5.99-14.31,10.03-22.56,10.03ZM233.93,109.89c5.98,0,11.05,2.45,14.41,6.34l-47.28,21.05c2.89-14.31,17.48-27.39,32.87-27.39Z" style="fill:#fff;"/><path d="M347.25,45.17l-35.36,15.74-5.01,23.6h-13.44l-5.73,26.56h13.64c-8.89,41.31-9.88,45.64-9.88,50.75,0,15.54,11.07,26.75,27.87,26.75,9.09,0,18.97-3.34,25.89-8.85l-3.56-23.21c-2.17,1.97-6.92,4.33-11.46,4.33-3.56,0-5.53-1.77-5.53-6.1,0-2.36.59-4.72,8.7-43.67h21.15l5.53-26.56h-21.15l8.35-39.34Z" style="fill:#fff;"/><path d="M477.86,51.07h31.75l-28.16,135.14h-31.75l28.16-135.14Z" style="fill:#fff;"/><path d="M516,84.51h31.89l-21.35,101.7h-31.89l21.35-101.7ZM520.65,58.35c0-10.62,9.49-19.08,19.37-19.08,9.09,0,15.81,7.28,15.81,16.13,0,10.03-9.09,18.89-18.78,18.89s-16.41-7.08-16.41-15.93Z" style="fill:#fff;"/></svg>